{
	"asset":{
		"generator":"Khronos glTF Blender I/O v3.5.30",
		"version":"2.0"
	},
	"extensionsUsed":[
		"KHR_materials_specular",
		"KHR_materials_ior"
	],
	"scene":0,
	"scenes":[
		{
			"name":"Scene",
			"nodes":[
				0,
				1
			]
		}
	],
	"nodes":[
		{
			"mesh":0,
			"name":"Torus.004",
			"rotation":[
				-0.38218507170677185,
				-0.14827242493629456,
				0.008005757816135883,
				0.9120778441429138
			],
			"translation":[
				2.8506813049316406,
				-2.3990089893341064,
				-5.732641220092773
			]
		},
		{
			"mesh":1,
			"name":"Stick",
			"rotation":[
				-0.38218507170677185,
				-0.14827242493629456,
				0.008005757816135883,
				0.9120778441429138
			],
			"translation":[
				0.25250327587127686,
				3.1147310733795166,
				-1.4442713260650635
			]
		}
	],
	"materials":[
		{
			"doubleSided":true,
			"extensions":{
				"KHR_materials_specular":{
					"specularColorFactor":[
						2.371357614441398,
						2.371357614441398,
						2.371357614441398
					]
				},
				"KHR_materials_ior":{
					"ior":1.4500000476837158
				}
			},
			"name":"\ub9e4\ud14c\ub9ac\uc5bc",
			"pbrMetallicRoughness":{
				"baseColorFactor":[
					1,
					0.9716885685920715,
					0.9998166561126709,
					0.4931510090827942
				],
				"metallicFactor":0,
				"roughnessFactor":0.31506848335266113
			}
		},
		{
			"doubleSided":true,
			"emissiveFactor":[
				0.3999999761581421,
				0.268027337311068,
				0
			],
			"extensions":{
				"KHR_materials_specular":{
					"specularColorFactor":[
						0.08,
						0.08,
						0.08
					]
				},
				"KHR_materials_ior":{
					"ior":0
				}
			},
			"name":"\ub9e4\ud14c\ub9ac\uc5bc.001",
			"pbrMetallicRoughness":{
				"baseColorFactor":[
					1,
					0.8524097204208374,
					0.13901782035827637,
					1
				],
				"metallicFactor":0.2590909004211426,
				"roughnessFactor":0.3200620114803314
			}
		}
	],
	"meshes":[
		{
			"name":"Torus.004",
			"primitives":[
				{
					"attributes":{
						"POSITION":0,
						"TEXCOORD_0":1,
						"NORMAL":2
					},
					"indices":3,
					"material":0
				}
			]
		},
		{
			"name":"Torus.003",
			"primitives":[
				{
					"attributes":{
						"COLOR_0":4,
						"POSITION":5,
						"TEXCOORD_0":6,
						"NORMAL":7
					},
					"indices":8,
					"material":1
				}
			]
		}
	],
	"accessors":[
		{
			"bufferView":0,
			"componentType":5126,
			"count":1132,
			"max":[
				2.5735602378845215,
				0.906256914138794,
				8.458186149597168
			],
			"min":[
				1.7199214696884155,
				0.3754110336303711,
				5.809947967529297
			],
			"type":"VEC3"
		},
		{
			"bufferView":1,
			"componentType":5126,
			"count":1132,
			"type":"VEC2"
		},
		{
			"bufferView":2,
			"componentType":5126,
			"count":1132,
			"type":"VEC3"
		},
		{
			"bufferView":3,
			"componentType":5123,
			"count":1920,
			"type":"SCALAR"
		},
		{
			"bufferView":4,
			"componentType":5123,
			"count":25660,
			"normalized":true,
			"type":"VEC4"
		},
		{
			"bufferView":5,
			"componentType":5126,
			"count":25660,
			"max":[
				3.2061591148376465,
				0.21693547070026398,
				3.190000057220459
			],
			"min":[
				-3.190000057220459,
				-0.21000000834465027,
				-3.190000057220459
			],
			"type":"VEC3"
		},
		{
			"bufferView":6,
			"componentType":5126,
			"count":25660,
			"type":"VEC2"
		},
		{
			"bufferView":7,
			"componentType":5126,
			"count":25660,
			"type":"VEC3"
		},
		{
			"bufferView":8,
			"componentType":5123,
			"count":89598,
			"type":"SCALAR"
		}
	],
	"bufferViews":[
		{
			"buffer":0,
			"byteLength":13584,
			"byteOffset":0,
			"target":34962
		},
		{
			"buffer":0,
			"byteLength":9056,
			"byteOffset":13584,
			"target":34962
		},
		{
			"buffer":0,
			"byteLength":13584,
			"byteOffset":22640,
			"target":34962
		},
		{
			"buffer":0,
			"byteLength":3840,
			"byteOffset":36224,
			"target":34963
		},
		{
			"buffer":0,
			"byteLength":205280,
			"byteOffset":40064,
			"target":34962
		},
		{
			"buffer":0,
			"byteLength":307920,
			"byteOffset":245344,
			"target":34962
		},
		{
			"buffer":0,
			"byteLength":205280,
			"byteOffset":553264,
			"target":34962
		},
		{
			"buffer":0,
			"byteLength":307920,
			"byteOffset":758544,
			"target":34962
		},
		{
			"buffer":0,
			"byteLength":179196,
			"byteOffset":1066464,
			"target":34963
		}
	],
	"buffers":[
		{
			"byteLength":1245660,
			"uri":"data:application/octet-stream;base64,"
		}
	]
}
