{
	"asset":{
		"generator":"Khronos glTF Blender I/O v3.5.30",
		"version":"2.0"
	},
	"scene":0,
	"scenes":[
		{
			"name":"Scene",
			"nodes":[
				0
			]
		}
	],
	"nodes":[
		{
			"mesh":0,
			"name":"Bottle",
			"scale":[
				0.5540592074394226,
				0.6437399983406067,
				0.5540592074394226
			],
			"translation":[
				0,
				0.6297810673713684,
				0
			]
		}
	],
	"materials":[
		{
			"doubleSided":true,
			"name":"Bottle",
			"pbrMetallicRoughness":{
				"baseColorFactor":[
					0.800000011920929,
					0.800000011920929,
					0.800000011920929,
					1
				],
				"metallicFactor":0,
				"roughnessFactor":0.5
			}
		}
	],
	"meshes":[
		{
			"name":"\uc2e4\ub9b0\ub354",
			"primitives":[
				{
					"attributes":{
						"POSITION":0,
						"TEXCOORD_0":1,
						"NORMAL":2
					},
					"indices":3,
					"material":0
				}
			]
		}
	],
	"accessors":[
		{
			"bufferView":0,
			"componentType":5126,
			"count":46080,
			"max":[
				0.9929673075675964,
				1.977284550666809,
				0.9929673075675964
			],
			"min":[
				-0.9929673075675964,
				-1.046619176864624,
				-0.9929673075675964
			],
			"type":"VEC3"
		},
		{
			"bufferView":1,
			"componentType":5126,
			"count":46080,
			"type":"VEC2"
		},
		{
			"bufferView":2,
			"componentType":5126,
			"count":46080,
			"type":"VEC3"
		},
		{
			"bufferView":3,
			"componentType":5123,
			"count":69120,
			"type":"SCALAR"
		}
	],
	"bufferViews":[
		{
			"buffer":0,
			"byteLength":552960,
			"byteOffset":0,
			"target":34962
		},
		{
			"buffer":0,
			"byteLength":368640,
			"byteOffset":552960,
			"target":34962
		},
		{
			"buffer":0,
			"byteLength":552960,
			"byteOffset":921600,
			"target":34962
		},
		{
			"buffer":0,
			"byteLength":138240,
			"byteOffset":1474560,
			"target":34963
		}
	],
	"buffers":[
		{
			"byteLength":1612800,
			"uri":"data:application/octet-stream;base64,"
		}
	]
}
